<svg width="2880" height="60" viewBox="0 0 2880 60" fill="none" xmlns="http://www.w3.org/2000/svg">
<path d="M652.177 44.7361C332.581 2.81761 84.2275 27.2701 0 44.7361V0H1440C1310.56 32.3781 971.772 86.6547 652.177 44.7361Z" fill="#099BE5"/>
<path opacity="0.5" d="M787.823 44.7361C1107.42 2.81761 1355.77 27.2701 1440 44.7361V0H0C129.443 32.3781 468.228 86.6547 787.823 44.7361Z" fill="#099BE5"/>
<path d="M2227.82 44.7361C2547.42 2.81761 2795.77 27.2701 2880 44.7361V0H1440C1569.44 32.3781 1908.23 86.6547 2227.82 44.7361Z" fill="#099BE5"/>
<path opacity="0.5" d="M2092.18 44.7361C1772.58 2.81761 1524.23 27.2701 1440 44.7361V0H2880C2750.56 32.3781 2411.77 86.6547 2092.18 44.7361Z" fill="#099BE5"/>
</svg>
