<svg width="2880" height="60" viewBox="0 0 2880 60" fill="none" xmlns="http://www.w3.org/2000/svg">
<path d="M2227.82 15.2639C2547.42 57.1824 2795.77 32.7299 2880 15.2639V60H1440C1569.44 27.6219 1908.23 -26.6547 2227.82 15.2639Z" fill="#099BE5"/>
<path opacity="0.5" d="M2092.18 15.2639C1772.58 57.1824 1524.23 32.7299 1440 15.2639V60H2880C2750.56 27.6219 2411.77 -26.6547 2092.18 15.2639Z" fill="#099BE5"/>
<path d="M652.177 15.2639C332.581 57.1824 84.2275 32.7299 0 15.2639V60H1440C1310.56 27.6219 971.772 -26.6547 652.177 15.2639Z" fill="#099BE5"/>
<path opacity="0.5" d="M787.823 15.2639C1107.42 57.1824 1355.77 32.7299 1440 15.2639V60H0C129.443 27.6219 468.228 -26.6547 787.823 15.2639Z" fill="#099BE5"/>
</svg>
