<svg width="500" height="245" viewBox="0 0 500 245" fill="none" xmlns="http://www.w3.org/2000/svg">
<g clip-path="url(#clip0_1_48)">
<path d="M132.958 104.609C161.769 104.609 185.133 81.2449 185.133 52.4339C185.133 23.6229 161.769 0.258514 132.958 0.258514C104.134 0.258514 80.7826 23.6229 80.7826 52.4339C80.7826 81.2449 104.134 104.609 132.958 104.609Z" fill="#FCE5A8"/>
<path d="M25.8961 110.091C49.6853 130.228 85.1223 143.441 113.357 165.263C176.535 214.111 265.022 231.681 325.834 192.324C390.422 150.506 376.977 156.76 438.071 135.04C457.45 128.155 470.755 119.229 479.931 110.091H25.8961Z" fill="#FCE5A8"/>
<path d="M266.185 151.909C280.219 151.909 291.596 149.706 291.596 146.991C291.596 144.273 280.219 142.07 266.185 142.07C252.15 142.07 240.771 144.273 240.771 146.991C240.771 149.706 252.15 151.909 266.185 151.909Z" fill="#414BA2"/>
<path d="M270.454 191.27C273.983 191.27 276.842 189.694 276.842 187.755C276.842 185.816 273.983 184.24 270.454 184.24C266.925 184.24 264.066 185.816 264.066 187.755C264.066 189.694 266.925 191.27 270.454 191.27Z" fill="#414BA2"/>
<path d="M499.779 65.513H0.051712C2.38198 84.7439 12.1895 98.6831 25.8821 110.327H479.773C501.475 88.5548 499.779 65.513 499.779 65.513Z" fill="#099BE5"/>
<path d="M441.593 79.8048H407.859" stroke="#414BA2" stroke-width="1.75" stroke-linecap="round" stroke-linejoin="round"/>
<path d="M301.999 74.7248H280.826" stroke="#414BA2" stroke-width="1.75" stroke-linecap="round" stroke-linejoin="round"/>
<path d="M224.015 74.7248H212.723" stroke="#414BA2" stroke-width="1.75" stroke-linecap="round" stroke-linejoin="round"/>
<path d="M70.8728 84.2503H49.6994" stroke="#414BA2" stroke-width="1.75" stroke-linecap="round" stroke-linejoin="round"/>
<path d="M74.8247 76.417H62.4753" stroke="#414BA2" stroke-width="1.75" stroke-linecap="round" stroke-linejoin="round"/>
<path d="M43.7028 84.2503H40.5264" stroke="#414BA2" stroke-width="1.75" stroke-linecap="round" stroke-linejoin="round"/>
<path d="M399.25 79.8048H393.743" stroke="#414BA2" stroke-width="1.75" stroke-linecap="round" stroke-linejoin="round"/>
<path d="M327.265 86.5101H321.759" stroke="#414BA2" stroke-width="1.75" stroke-linecap="round" stroke-linejoin="round"/>
<path d="M395.509 86.3691H384.218" stroke="#414BA2" stroke-width="1.75" stroke-linecap="round" stroke-linejoin="round"/>
<path d="M469.468 90.039H456.202" stroke="#414BA2" stroke-width="1.75" stroke-linecap="round" stroke-linejoin="round"/>
<path d="M268.335 79.8048H255.069" stroke="#414BA2" stroke-width="1.75" stroke-linecap="round" stroke-linejoin="round"/>
<path d="M452.673 98.3659H433.266" stroke="#414BA2" stroke-width="1.75" stroke-linecap="round" stroke-linejoin="round"/>
<path d="M258.951 101.19H239.544" stroke="#414BA2" stroke-width="1.75" stroke-linecap="round" stroke-linejoin="round"/>
<path d="M106.863 101.19H87.4561" stroke="#414BA2" stroke-width="1.75" stroke-linecap="round" stroke-linejoin="round"/>
<path d="M176.608 177.306L172.86 168.872L168.004 157.877V168.872V177.306V178.657L177.653 200.415H186.86L176.608 177.306Z" fill="#BEBEBE"/>
<path opacity="0.3" d="M176.608 177.306L172.86 168.872L168.004 157.877V168.872V177.306V178.657L171.513 186.551L178.63 181.895L176.608 177.306Z" fill="#BEBEBE"/>
<path d="M113.131 140.215C105.382 140.215 99.1145 147.816 99.1145 157.223V213.191H107.538V157.223C107.538 153.459 110.029 150.437 113.131 150.437H145.88C151.138 150.437 155.92 154.196 158.042 160.04L159.426 163.804V157.223C159.426 154.072 160.134 150.967 161.513 148.269C157.406 143.114 151.778 140.215 145.88 140.215H113.131Z" fill="#BEBEBE"/>
<path opacity="0.3" d="M113.222 140.203C109.946 140.203 106.947 141.316 104.55 143.202L108.259 151.602C109.207 149.847 111.059 148.636 113.222 148.636H146.009C151.273 148.636 156.061 151.738 158.185 156.56L159.57 159.666V154.236C159.57 151.636 160.28 149.074 161.661 146.847C157.544 142.595 151.91 140.203 146.009 140.203H113.222Z" fill="#BEBEBE"/>
<path d="M227.778 177.306L224.035 168.873H196.644C188.886 168.873 181.833 164.288 178.698 157.201L151.948 96.8535H88.5626L118.822 165.435C121.957 172.552 129.006 177.14 136.768 177.14H176.54L176.608 177.306H227.778Z" fill="#F9AE5D"/>
<path d="M278.644 177.254C284.296 177.254 289.445 180.378 291.728 185.229L298.977 200.499H308.874L300.027 181.802C296.261 173.895 287.884 168.771 278.644 168.771H227.79L231.817 177.254H278.644Z" fill="#F9AE5D"/>
<path opacity="0.3" d="M161.962 154.032H177.279L173.536 145.598H161.933C154.17 145.598 147.899 151.874 147.899 159.632V177.14H156.333V159.632C156.363 156.526 158.861 154.032 161.962 154.032Z" fill="#414BA2"/>
<path d="M139.296 117.464L154.948 152.783" stroke="#414BA2" stroke-width="1.75" stroke-linecap="round" stroke-linejoin="round"/>
<path d="M127.319 117.464L142.971 152.783" stroke="#414BA2" stroke-width="1.75" stroke-linecap="round" stroke-linejoin="round"/>
<path d="M115.346 117.464L130.998 152.783" stroke="#414BA2" stroke-width="1.75" stroke-linecap="round" stroke-linejoin="round"/>
<path opacity="0.3" d="M225.348 168.872H217.658L221.401 177.306H229.095L225.348 168.872Z" fill="#414BA2"/>
<path opacity="0.3" d="M132.447 116.754C143.782 122.422 155.22 126.301 165.982 128.464L151.982 96.8535H102.762C110.996 104.242 121.014 111.091 132.447 116.754Z" fill="#414BA2"/>
<path d="M357.975 217.557C357.491 217.118 356.921 216.713 356.409 216.392L356.381 216.393L336.76 224.69L315.307 237.656C315.307 237.656 315.276 237.685 315.308 237.685C316.257 239.543 317.299 241.461 318.367 243.407C318.367 243.407 318.399 243.438 318.399 243.407L360.828 221.441C360.828 221.441 360.856 221.409 360.828 221.409C359.999 219.727 359.028 218.493 357.975 217.557Z" fill="#414BA2"/>
<path d="M304.19 206.868L333.482 191.167C333.511 191.167 333.511 191.167 333.511 191.195C333.793 192.112 334.14 193.387 334.458 194.781C335.22 198.009 336.024 201.832 336.392 202.572C336.365 202.929 334.922 221.389 334.873 222.16C334.874 222.192 334.874 222.192 334.845 222.193L311.09 222.554L307.947 221.203C307.947 221.203 307.947 221.203 307.915 221.175C306.492 217.447 305.246 213.63 304.178 210.018L304.19 206.868C304.159 206.868 304.159 206.868 304.19 206.868Z" fill="#FAA378"/>
<path d="M258.853 221.299L257.931 219.347C257.931 219.347 257.931 219.347 257.931 219.319C258.319 215.477 258.826 211.752 259.456 208.175L261.016 203.242L261.047 203.213L293.906 203.22C293.938 203.22 293.939 203.248 293.939 203.248L293.231 207.662C292.412 210.528 291.888 213.152 291.679 215.149L283.256 232.288C283.256 232.288 283.227 232.317 283.227 232.288L258.853 221.299Z" fill="#FAA378"/>
<path d="M233.361 135.055L235.464 124.552L235.492 124.523L273.164 125.974L275.44 127.127C275.829 127.153 305.925 129.193 317.517 140.673C328.616 150.765 330.11 176.794 334.489 194.748L334.489 194.78C333.661 195.207 305.3 209.466 304.238 210.017C304.206 210.018 304.206 210.018 304.206 209.989C303.357 206.969 302.633 204.183 301.998 201.578C298.445 187.001 297.954 178.174 297.819 167.234C297.819 167.202 297.819 167.202 297.787 167.203L260.804 167.886C243.262 168.209 229.937 152.236 233.361 135.055Z" fill="#F58A8F"/>
<path opacity="0.2" d="M297.822 167.202L303.996 150.9C303.996 150.872 304.025 150.871 304.057 150.899C314.56 159.099 312.782 177.118 302 201.517C302.001 201.546 301.94 201.547 301.94 201.518C298.419 186.969 297.927 178.086 297.822 167.202Z" fill="#121212"/>
<path d="M218.235 141.442C220.346 131.538 223.846 125.178 224.051 124.818L224.079 124.817L245.002 125.837C245.002 125.837 288.484 130.025 302.072 145.642C313.122 158.35 298.346 189.917 293.259 207.601L293.231 207.63L259.485 208.142C259.456 208.143 259.456 208.114 259.456 208.114C262.139 192.878 266.812 179.453 272.434 167.859C272.433 167.83 272.433 167.83 272.405 167.83L250.432 168.164L244.904 168.248C225.072 168.578 216.422 157.171 217.803 144.243C217.877 143.292 218.042 142.366 218.235 141.442Z" fill="#F58A8F"/>
<path opacity="0.2" d="M277.808 157.395L272.404 167.799C272.404 167.799 258.996 168.002 253.018 168.093C251.77 168.112 250.849 168.126 250.432 168.132C262.413 167.95 273.448 156.184 277.776 157.367C277.808 157.367 277.837 157.395 277.808 157.395Z" fill="#121212"/>
<path d="M284.392 134.726C291.63 137.499 298.107 141.089 302.072 145.638C309.853 154.561 304.836 172.836 299.431 189.037" stroke="#121212" stroke-width="1.75" stroke-linecap="round" stroke-linejoin="round"/>
<path d="M293.231 207.658L259.753 208.167" stroke="#121212" stroke-width="1.75" stroke-linecap="round" stroke-linejoin="round"/>
<path d="M334.372 194.814L304.507 209.899" stroke="#121212" stroke-width="1.75" stroke-linecap="round" stroke-linejoin="round"/>
<path d="M303.193 237.037C303.225 237.037 303.224 237.005 303.224 236.976C299.626 231.201 291.841 229.803 291.605 218.001C291.558 217.049 291.603 216.01 291.709 215.027C291.709 214.996 291.709 214.996 291.677 214.996L283.887 215.114C281.122 215.156 279.02 217.657 279.508 220.415L280.843 227.979C280.843 228.008 280.812 228.037 280.782 228.009C279.969 227.279 271.437 219.706 257.931 219.315C257.899 219.316 257.899 219.316 257.9 219.348C257.538 222.832 257.327 226.521 257.171 230.094C257.091 232.561 257.04 235.12 257.051 237.706C257.051 237.738 257.051 237.738 257.08 237.738C257.913 237.814 280.038 239.59 280.185 239.617C280.334 239.614 302.006 237.144 303.193 237.037Z" fill="#FCE5A8"/>
<path d="M303.225 237.037L257.052 237.767C257.02 237.767 257.02 237.767 257.02 237.796C257.024 239.908 257.086 242.137 257.152 244.337C257.152 244.369 257.152 244.369 257.181 244.368L304.988 243.642C305.02 243.642 305.02 243.642 305.019 243.61C304.919 240.996 304.504 239.04 303.225 237.037C303.253 237.036 303.253 237.036 303.225 237.037Z" fill="#414BA2"/>
<path d="M292.413 224.471L287.508 226.597" stroke="#414BA2" stroke-width="1.75" stroke-linecap="round" stroke-linejoin="round"/>
<path d="M294.922 228.957L290.833 231.784" stroke="#414BA2" stroke-width="1.75" stroke-linecap="round" stroke-linejoin="round"/>
<path d="M280.869 228.068L282.884 237.374" stroke="#414BA2" stroke-width="1.75" stroke-linecap="round" stroke-linejoin="round"/>
<path d="M356.349 216.393C356.381 216.393 356.38 216.364 356.348 216.333C350.525 212.793 342.827 214.964 337.373 204.49C337.068 203.899 336.762 203.248 336.424 202.571C336.423 202.539 336.394 202.54 336.394 202.54L330.903 205.302C328.07 206.712 327.173 210.354 329.028 212.941L333.038 218.563C333.067 218.591 333.039 218.62 333.01 218.621C331.935 218.312 320.586 215.213 307.979 221.174L307.951 221.203C309.187 224.395 310.484 227.529 311.931 230.718C312.946 232.964 314.112 235.323 315.275 237.628C315.275 237.628 315.307 237.656 315.307 237.627C316.753 236.949 354.967 217.306 356.349 216.393Z" fill="#FCE5A8"/>
<path d="M341.628 210.466L338.179 214.353" stroke="#414BA2" stroke-width="1.75" stroke-linecap="round" stroke-linejoin="round"/>
<path d="M345.649 212.87L343.722 217.095" stroke="#414BA2" stroke-width="1.75" stroke-linecap="round" stroke-linejoin="round"/>
<path d="M333.125 218.622L338.91 225.523" stroke="#414BA2" stroke-width="1.75" stroke-linecap="round" stroke-linejoin="round"/>
<path d="M272.43 167.83C272.43 167.83 276.505 159.916 277.805 157.399" stroke="#121212" stroke-width="1.75" stroke-linecap="round" stroke-linejoin="round"/>
<path d="M289.944 85.1856C291.914 87.5926 293.276 89.2093 293.488 89.4737C293.488 89.5024 293.516 89.4733 293.548 89.4728C293.945 88.3359 301.358 67.1986 305.103 59.3499C308.965 51.2604 310.8 46.6231 313.167 47.8964C315.088 48.9375 313.96 56.9249 313.826 57.9081C313.826 57.9368 313.855 57.9682 313.887 57.9359C314.353 57.4254 317.074 54.4693 319.406 53.2425C322.324 51.5927 325.38 53.1231 325.183 55.8911C325.184 55.923 325.184 55.923 325.216 55.9225C325.393 55.8593 326.221 55.6078 327.147 55.7434C328.129 55.8177 329.27 56.6923 329.563 58.3826C329.563 58.3826 329.564 58.4144 329.595 58.414C329.863 58.4099 332.76 59.347 332.268 62.1769C332.241 62.2984 332.332 62.3862 332.421 62.4135C336.953 63.1474 332.636 72.553 330.132 72.3522C329.718 72.3584 329.328 72.2752 328.968 72.0704C328.789 72.0444 328.514 71.5421 328.4 71.7541C326.607 75.1994 322.665 77.9957 319.968 78.4827C319.968 78.4827 319.936 78.4831 319.936 78.515C319.837 79.7334 316.618 120.287 295.828 120.246C290.271 120.33 285.421 118.352 281.758 116.089C279.355 114.548 277.458 112.972 276.222 111.681L276.221 111.653C276.447 111.025 281.145 95.2518 281.23 94.9511L289.883 85.1866C289.915 85.1542 289.915 85.1542 289.944 85.1856Z" fill="#FAA378"/>
<path d="M270.137 55.8959C266.828 59.0681 260.588 57.6752 260.051 57.5655C260.023 57.5659 260.023 57.5659 260.023 57.5946L260.072 60.8081L260.082 61.4896L260.286 76.8026C260.287 76.8313 260.255 76.8318 260.255 76.8318L238.352 73.7751C238.352 73.7751 238.324 73.7755 238.323 73.7469L237.418 63.2324L237.234 53.0064L238.798 40.4029C238.689 33.2084 237.03 25.945 244.741 22.499C253.365 18.5899 262.732 20.5596 266.25 24.9978C268.251 27.5827 271.191 29.2328 271.483 32.7102C271.668 35.2335 271.654 38.088 271.829 40.0189C272.287 44.5609 274.654 51.6925 270.137 55.8959Z" fill="#FAA378"/>
<path opacity="0.2" d="M260.023 57.5691L260.071 60.7221C260.071 60.7508 260.043 60.7512 260.011 60.7517L253.563 55.0806C253.531 55.0492 253.562 55.0201 253.591 55.0196C256.799 56.7548 259.725 57.4844 260.023 57.5691Z" fill="#121212"/>
<path d="M271.482 32.6783C271.482 32.6783 269.466 33.1262 266.996 31.1728C266.939 31.1418 266.878 31.1427 266.85 31.2037C266.534 31.9826 264.572 35.9975 258.889 33.8826C258.86 33.8831 258.86 33.8831 258.861 33.9117C259.02 38.5188 254.111 40.4378 253.788 40.5606L253.757 40.561C253.483 40.1797 247.864 32.4446 243.49 36.1967C238.531 40.4356 244.838 48.6063 245.172 48.9898L245.173 49.0185C243.184 51.2499 240.323 52.6918 237.322 52.9445C237.291 52.945 237.291 52.9449 237.29 52.9163L237.071 40.3972C236.962 33.2027 237.08 23.3576 244.791 19.9115C253.415 16.0024 265.143 18.8569 268.632 23.3242C270.487 25.854 271.188 29.0544 271.482 32.6783Z" fill="#121212"/>
<path d="M249.584 43.7463L246.926 41.1713" stroke="#121212" stroke-width="1.75" stroke-linecap="round"/>
<path d="M253.619 55.0192C253.619 55.0192 258.083 57.1813 260.023 57.5691" stroke="#121212" stroke-width="1.75" stroke-linecap="round"/>
<path d="M265.851 49.6855C264.606 49.9433 263.643 49.2731 263.332 48.2967" stroke="#121212" stroke-width="1.75" stroke-linecap="round"/>
<path d="M266.326 45.7856C266.653 45.6628 266.888 45.4203 267.03 45.1219C267.172 44.6419 266.864 43.8151 266.645 43.2833" stroke="#121212" stroke-width="1.75" stroke-linecap="round"/>
<path d="M269.33 39.9103C268.082 39.9612 268.11 41.8052 269.359 41.8149C270.607 41.7672 270.579 39.9232 269.33 39.9103Z" fill="#121212"/>
<path d="M261.518 40.4145C260.27 40.4622 260.298 42.3062 261.546 42.3159C262.794 42.2682 262.766 40.4242 261.518 40.4145Z" fill="#121212"/>
<path d="M204.796 92.6623C211.163 81.0594 219.324 72.0413 223.614 68.8256C227.73 65.67 232.334 63.2204 237.368 61.806L237.397 61.8056C237.671 62.2474 242.825 70.614 251.178 70.4871C259.8 70.3561 260.062 62.0251 260.082 61.4609C260.082 61.4323 260.11 61.4318 260.11 61.4318C272.029 62.7958 281.433 74.9651 289.914 85.0969L289.914 85.1256L283.787 96.967L276.22 111.563C276.22 111.592 276.188 111.593 276.159 111.564C275.04 110.45 274.074 109.334 273.192 108.099C273.163 108.071 273.131 108.1 273.132 108.132L275.506 127.247C275.506 127.276 275.506 127.276 275.474 127.276L222.495 128.081C222.463 128.082 222.463 128.082 222.462 128.053L222.982 101.458L204.796 92.6623C204.797 92.6942 204.797 92.6942 204.796 92.6623Z" fill="#FCE5A8"/>
<path d="M332.178 62.3599C331.716 65.046 330.1 70.4222 326.847 69.6084C326.847 69.6084 325.235 69.1582 324.848 67.1413" stroke="#121212" stroke-width="1.75" stroke-linecap="round" stroke-linejoin="round"/>
<path d="M329.592 58.3853C329.07 61.3972 327.012 66.8121 324.847 67.1126C322.679 67.4131 322.183 64.0885 322.183 64.0885" stroke="#121212" stroke-width="1.75" stroke-linecap="round" stroke-linejoin="round"/>
<path d="M325.181 55.9262C325.008 58.1588 323.381 64.5163 321.118 64.4615C318.859 64.4067 318.898 61.1345 319.535 58.1814" stroke="#121212" stroke-width="1.75" stroke-linecap="round" stroke-linejoin="round"/>
<path d="M328.516 71.6664C327.964 70.5725 328.483 69.4943 328.483 69.4943" stroke="#121212" stroke-width="1.75" stroke-linecap="round" stroke-linejoin="round"/>
<path opacity="0.2" d="M218.235 141.442C220.346 131.538 223.846 125.178 224.051 124.818L224.079 124.817L245.002 125.837C245.062 125.837 273.122 128.86 256.33 131.555L217.863 144.213C217.831 144.214 217.831 144.214 217.83 144.185C217.877 143.26 218.042 142.398 218.235 141.442Z" fill="#121212"/>
<path opacity="0.2" d="M291.187 86.6831C292.517 88.297 293.397 89.354 293.517 89.5019L293.517 89.5306L291.775 94.1984C291.776 94.2271 291.715 94.228 291.715 94.1993L291.127 86.7413C291.126 86.684 291.155 86.6836 291.187 86.6831Z" fill="#121212"/>
<path opacity="0.2" d="M281.668 116.004C278.035 113.619 275.318 111.102 273.131 108.074C273.096 107.689 271.806 97.1808 271.529 94.4773C271.528 94.42 271.617 94.3868 271.647 94.4469C272.845 97.0153 281.082 114.554 281.756 115.971C281.728 116.003 281.7 116.032 281.668 116.004Z" fill="#121212"/>
<path d="M291.684 94.0214L293.517 89.5306" stroke="#121212" stroke-width="1.75" stroke-linecap="round"/>
<path d="M273.099 108.072L271.46 94.1184" stroke="#121212" stroke-width="1.75" stroke-linecap="round"/>
<path opacity="0.2" d="M229.69 104.721C230.666 102.533 231.788 100.019 232.822 97.4449C232.849 97.3553 232.999 97.3817 233.001 97.4709L234.145 127.936L234.117 127.968L222.461 128.145L222.432 128.114L225.974 102.961L229.661 104.75C229.69 104.721 229.69 104.721 229.69 104.721Z" fill="#121212"/>
<path d="M322.83 129.026L335.456 96.4279C336.716 93.1447 335.118 90.5108 331.854 90.5604L282.018 91.3175C278.758 91.367 275.04 94.0491 273.742 97.3654L261.12 129.963C259.857 133.243 261.458 135.877 264.718 135.827L314.591 135.07C317.854 134.984 321.571 132.306 322.83 129.026Z" fill="#121212"/>
<path d="M320.029 103.234C319.06 102.13 319.517 100.147 321.051 98.8035C322.578 97.4603 324.606 97.2672 325.575 98.3706C326.54 99.474 326.087 101.457 324.556 102.801C323.026 104.144 320.998 104.337 320.029 103.234Z" fill="#FCE5A8"/>
<path d="M259.34 122.288C259.311 122.288 259.283 122.317 259.312 122.349C261.136 123.092 269.184 126.094 270.838 127.407C273.997 129.857 268.483 130.922 268.067 131.017C268.039 131.018 268.039 131.046 268.039 131.046C268.381 134.074 263.859 133.964 263.445 133.942C263.413 133.942 263.413 133.942 263.413 133.971C263.449 134.238 263.445 136.082 259.165 136.147C254.528 136.218 238.996 131.876 238.759 131.791C208.139 134.486 179.568 138.905 204.768 92.7233C204.768 92.7233 204.797 92.6942 204.797 92.7228C205.217 92.9235 211.357 95.745 217.465 98.5383C223.483 101.301 229.244 104.546 229.665 104.775C229.665 104.775 229.694 104.806 229.665 104.807C227.881 108.759 226.521 111.305 226.348 111.636C226.348 111.668 226.348 111.668 226.377 111.668C227.36 111.771 244.79 113.825 254.248 115.911C276.198 120.009 278.174 126.789 259.34 122.288Z" fill="#FAA378"/>
<path d="M226.377 111.639L233.529 112.543" stroke="#121212" stroke-width="1.75" stroke-linecap="round"/>
<path d="M232.966 97.0541L229.693 104.717" stroke="#121212" stroke-width="1.75" stroke-linecap="round"/>
<path d="M252.025 130.194L263.413 133.974" stroke="#121212" stroke-width="1.75" stroke-linecap="round"/>
<path d="M253.892 126.002L268.036 131.05" stroke="#121212" stroke-width="1.75" stroke-linecap="round"/>
<path d="M255.694 121.094L259.312 122.349" stroke="#121212" stroke-width="1.75" stroke-linecap="round"/>
<path d="M313.852 57.9364L313.348 59.9987C313.348 59.9987 316.803 64.1098 317.503 69.1228" stroke="#121212" stroke-width="1.75" stroke-linecap="round" stroke-linejoin="round"/>
<path d="M218.691 140.008L227.223 139.879C227.876 139.869 228.391 140.453 228.283 141.111L227.036 149.158C226.468 152.855 224.219 155.626 220.445 155.683L219.821 155.693" stroke="#121212" stroke-width="1.75" stroke-linecap="round"/>
<path d="M236.919 185.184L233.168 174.963L226.182 155.91C222.669 146.389 214.87 140.215 206.259 140.215H173.444C165.679 140.215 159.398 147.816 159.398 157.223V213.191H167.839V157.223C167.839 153.459 170.335 150.437 173.444 150.437H206.259C211.528 150.437 216.32 154.196 218.447 160.04L223.919 174.963L227.666 185.184L237.931 213.191H247.18L236.919 185.184Z" fill="#BEBEBE"/>
<path d="M370.432 46.8514C369.705 47.762 368.395 47.9082 367.485 47.1807C367.06 46.8413 366.781 46.3198 366.72 45.7746C365.135 31.585 352.332 21.3555 338.143 22.9406C337.051 23.0625 336.02 22.2388 335.837 21.0983C335.655 19.9582 336.54 18.9756 337.679 18.7926C354.162 16.952 369.027 28.8295 370.868 45.3112C370.88 45.9176 370.771 46.4267 370.432 46.8514Z" fill="#FBA830"/>
<path d="M361.009 48.5675C360.282 49.4774 358.971 49.6238 358.062 48.8967C357.637 48.5574 357.358 48.0359 357.297 47.49C356.26 38.2119 347.827 31.4736 338.549 32.5095C337.458 32.632 336.426 31.8077 336.244 30.6677C336.121 29.5767 336.946 28.5452 338.086 28.3627C349.656 27.0696 360.092 35.408 361.384 46.9784C361.506 47.5725 361.348 48.1428 361.009 48.5675Z" fill="#FBA830"/>
<path d="M351.925 49.8588C351.198 50.7687 349.888 50.9145 348.978 50.1874C348.553 49.8481 348.274 49.3266 348.213 48.7814C347.725 44.4153 343.721 41.2155 339.355 41.7032C338.263 41.8252 337.232 41.0009 337.049 39.8609C336.927 38.7692 337.752 37.7377 338.892 37.5553C345.549 36.8115 351.556 41.6114 352.361 48.3175C352.422 48.8639 352.264 49.4341 351.925 49.8588Z" fill="#FBA830"/>
<path d="M342.756 50.3855C343.586 49.3478 343.415 47.8302 342.378 47.0016C341.341 46.1725 339.824 46.342 338.995 47.3796C338.165 48.4173 338.335 49.9344 339.373 50.7635C340.41 51.5921 341.927 51.4231 342.756 50.3855Z" fill="#FBA830"/>
<path d="M366.275 32.864C367.345 31.7953 368.724 32.5221 369.793 33.5908L378.845 42.6429C379.915 43.7124 380.278 44.7289 379.209 45.7976C378.139 46.8672 377.124 46.5037 376.054 45.4341L367.002 36.3821C365.932 35.3134 365.206 33.9336 366.275 32.864Z" fill="#68382F"/>
<path d="M379.209 32.864C380.278 33.9336 379.915 34.95 378.845 36.0187L369.793 45.0707C368.724 46.1403 367.345 46.8672 366.275 45.7976C365.206 44.7289 365.569 44.0759 366.639 43.0063L375.691 33.9543C376.76 32.8856 378.139 31.7953 379.209 32.864Z" fill="#68382F"/>
</g>
<defs>
<clipPath id="clip0_1_48">
<rect width="500" height="244.275" fill="white"/>
</clipPath>
</defs>
</svg>
