<svg width="1024" height="400" viewBox="0 0 1024 400" fill="none" xmlns="http://www.w3.org/2000/svg">
<path d="M644 179.508C650.782 147.417 669.163 108.825 702.512 116.332C744.855 125.906 754.763 218.293 729.694 215.789C708.235 213.624 712.518 122.781 764.049 131.342" stroke="#FBA830" stroke-width="3" stroke-linecap="round" stroke-linejoin="round"/>
<path d="M740.846 79.8864C740.653 79.3072 740.073 78.9212 739.494 78.9838L714.253 81.2376L717.086 57.4156C717.154 56.8365 716.768 56.2573 716.189 56.0643C715.604 55.8713 714.963 56.1269 714.639 56.6434L702.342 78.4046L677.685 66.1075C677.106 65.8519 676.459 65.9771 676.073 66.4936C675.687 67.0101 675.755 67.7145 676.141 68.1684L693.588 86.841L668.8 97.0094C668.221 97.2703 667.898 97.8494 668.028 98.4911C668.153 99.0702 668.738 99.5242 669.317 99.5242L697.062 98.4911L693.911 125.918C693.843 126.565 694.229 127.144 694.808 127.27C694.939 127.337 695.069 127.337 695.2 127.337C695.648 127.337 696.097 127.077 696.358 126.628L709.041 101.324L734.538 111.305C735.117 111.498 735.759 111.305 736.082 110.788C736.401 110.277 736.338 109.567 735.821 109.181L717.733 92.7626L740.204 81.4306C740.783 81.1072 741.039 80.4655 740.846 79.8864Z" fill="white"/>
<path d="M715.998 160.192L728.289 90.4341H804.692L792.4 160.192H715.998Z" fill="#FCE5A8"/>
<path d="M766.425 90.4341L754.102 160.192" stroke="#121212" stroke-width="3" stroke-linecap="round" stroke-linejoin="round"/>
<path d="M749.782 144.912H726.131L729.95 123.32H753.603L749.782 144.912Z" fill="#414BA2"/>
<path d="M790.973 129.632H767.322L771.141 108.04H794.792L790.973 129.632Z" fill="#414BA2"/>
<path d="M724.802 152.22H748.385" stroke="#121212" stroke-width="3" stroke-linecap="round" stroke-linejoin="round"/>
<path d="M734.103 98.7378H757.688" stroke="#121212" stroke-width="3" stroke-linecap="round" stroke-linejoin="round"/>
<path d="M772.968 98.7378H796.553" stroke="#121212" stroke-width="3" stroke-linecap="round" stroke-linejoin="round"/>
<path d="M763.334 152.22H786.919" stroke="#121212" stroke-width="3" stroke-linecap="round" stroke-linejoin="round"/>
<path d="M746.892 108.04H756.359" stroke="#121212" stroke-width="3" stroke-linecap="round" stroke-linejoin="round"/>
<path d="M732.773 108.04H742.241" stroke="#121212" stroke-width="3" stroke-linecap="round" stroke-linejoin="round"/>
<path d="M745.895 114.018H755.362" stroke="#121212" stroke-width="3" stroke-linecap="round" stroke-linejoin="round"/>
<path d="M731.777 114.018H741.244" stroke="#121212" stroke-width="3" stroke-linecap="round" stroke-linejoin="round"/>
<path d="M779.777 138.6H789.244" stroke="#121212" stroke-width="3" stroke-linecap="round" stroke-linejoin="round"/>
<path d="M765.66 138.6H775.127" stroke="#121212" stroke-width="3" stroke-linecap="round" stroke-linejoin="round"/>
<path d="M778.781 144.58H788.248" stroke="#121212" stroke-width="3" stroke-linecap="round" stroke-linejoin="round"/>
<path d="M764.663 144.58H774.132" stroke="#121212" stroke-width="3" stroke-linecap="round" stroke-linejoin="round"/>
<path d="M781.442 111.601C781.316 111.909 781.225 112.203 781.136 112.464C780.692 113.985 780.21 116.357 780.039 118.421C779.822 121.049 780.15 122.953 780.56 124.679L778.599 125.086C778.224 123.547 777.946 121.045 778.148 118.599C778.329 116.419 778.831 113.998 779.151 112.366C779.211 112.036 779.276 111.656 779.285 111.355L781.442 111.601ZM778.312 113.185C781.473 113.447 783.998 113.505 786.595 113.1L786.453 115.015C784.139 115.242 780.624 115.202 778.112 114.994C777.23 114.921 775.939 114.73 775.16 114.632L775.269 112.715C775.861 112.848 777.297 113.101 778.312 113.185ZM785.297 116.226C785.139 116.514 784.826 117.259 784.681 117.599C783.484 120.515 781.585 122.619 779.907 123.653C778.76 124.362 777.252 124.974 775.804 124.854C774.59 124.754 773.635 123.938 773.776 122.241C773.97 119.895 776.269 117.622 778.995 116.877C780.126 116.568 781.511 116.432 782.759 116.535C785.87 116.793 788.017 118.78 787.802 121.375C787.607 123.738 786.02 125.902 781.891 126.196L780.923 124.34C784.163 124.257 785.611 122.752 785.747 121.105C785.865 119.69 784.749 118.392 782.503 118.206C780.989 118.08 779.755 118.414 778.91 118.712C777.181 119.356 775.867 120.856 775.775 121.971C775.729 122.52 775.922 122.82 776.471 122.866C777.253 122.931 778.414 122.474 779.507 121.61C780.814 120.596 782.068 119.208 782.924 116.968C783.069 116.628 783.245 115.922 783.292 115.557L785.297 116.226Z" fill="white"/>
<path d="M739.704 127.253C739.578 127.561 739.486 127.855 739.398 128.116C738.954 129.637 738.472 132.009 738.301 134.072C738.083 136.701 738.412 138.605 738.821 140.331L736.861 140.738C736.486 139.199 736.208 136.697 736.41 134.251C736.591 132.071 737.093 129.65 737.412 128.018C737.473 127.688 737.538 127.308 737.546 127.007L739.704 127.253ZM736.574 128.836C739.735 129.098 742.26 129.157 744.857 128.752L744.715 130.667C742.401 130.894 738.886 130.854 736.374 130.646C735.492 130.573 734.201 130.382 733.422 130.284L733.53 128.367C734.123 128.499 735.559 128.752 736.574 128.836ZM743.559 131.878C743.401 132.166 743.088 132.911 742.943 133.251C741.746 136.167 739.846 138.271 738.169 139.305C737.022 140.014 735.514 140.626 734.066 140.506C732.851 140.406 731.897 139.589 732.038 137.892C732.232 135.546 734.531 133.274 737.257 132.528C738.388 132.22 739.773 132.083 741.021 132.187C744.132 132.445 746.279 134.432 746.064 137.027C745.868 139.39 744.282 141.554 740.153 141.848L739.185 139.992C742.425 139.909 743.873 138.404 744.009 136.757C744.126 135.342 743.011 134.044 740.765 133.858C739.251 133.732 738.017 134.066 737.171 134.364C735.443 135.008 734.129 136.508 734.037 137.622C733.991 138.171 734.184 138.472 734.733 138.518C735.515 138.582 736.676 138.126 737.769 137.261C739.076 136.247 740.33 134.86 741.186 132.619C741.331 132.28 741.507 131.574 741.554 131.209L743.559 131.878Z" fill="white"/>
<path d="M653.742 343.6C664.096 343.6 672.473 335.212 672.473 324.858C672.473 314.516 664.096 306.127 653.742 306.127C643.389 306.127 635 314.516 635 324.858C635 335.212 643.389 343.6 653.742 343.6Z" fill="#FCE5A8"/>
<path d="M915.364 342.412C923.944 342.412 930.897 335.465 930.897 326.884C930.897 318.309 923.944 311.356 915.364 311.356C906.789 311.356 899.836 318.309 899.836 326.884C899.836 335.465 906.789 342.412 915.364 342.412Z" fill="#F9AE5D"/>
<path d="M849.28 175.553C856.053 175.553 861.553 170.053 861.553 163.273C861.553 156.493 856.053 151 849.28 151C842.493 151 837 156.493 837 163.273C837 170.053 842.493 175.553 849.28 175.553Z" fill="#F9AE5D"/>
<path d="M960.976 267.307L944.064 242.171L969.8 232.874C970.254 232.7 970.531 232.237 970.473 231.768C970.416 231.299 970.007 230.873 969.506 230.863L943.355 228.237L948.665 202.424C948.774 201.958 948.518 201.419 948.07 201.259C947.59 201.032 947.085 201.19 946.759 201.634L930.577 224.591L901.787 205.101C901.325 204.824 900.806 204.864 900.448 205.241C900.089 205.619 900.044 206.219 900.354 206.61L920.082 232.186L886.2 244.362C885.696 244.519 885.402 245.031 885.491 245.568C885.598 246.055 886.025 246.431 886.594 246.409L921.766 244.953L917.922 269.325C917.862 269.808 918.137 270.298 918.585 270.457C918.585 270.457 918.585 270.457 918.635 270.475C919.083 270.634 919.587 270.477 919.846 270.065L933.551 249.816L959.393 268.763C959.788 269.072 960.374 269 960.765 268.69C961.191 268.281 961.268 267.747 960.976 267.307Z" fill="white"/>
<path d="M925.758 192.092L923.729 181.558" stroke="#121212" stroke-width="3" stroke-linecap="round" stroke-linejoin="round"/>
<path d="M961.494 215.23L966.177 211.68" stroke="#121212" stroke-width="3" stroke-linecap="round" stroke-linejoin="round"/>
<path d="M948.402 282.799L951.706 289.75" stroke="#121212" stroke-width="3" stroke-linecap="round" stroke-linejoin="round"/>
<path d="M892.291 222.977L881.488 219.135" stroke="#121212" stroke-width="3" stroke-linecap="round" stroke-linejoin="round"/>
<path d="M824.841 300.878L863.861 306.159C867.634 306.673 871.161 304.418 871.752 301.149C871.801 300.849 871.834 300.535 871.834 300.22V232.87C871.834 229.559 868.751 226.86 864.926 226.86C864.565 226.86 864.222 226.889 863.861 226.932L824.841 232.213C821.478 232.67 819 235.183 819 238.152V294.953C819 297.908 821.478 300.42 824.841 300.878Z" fill="#414BA2"/>
<path d="M827.204 283.162L836.819 283.776" stroke="white" stroke-width="3" stroke-linecap="round" stroke-linejoin="round"/>
<path d="M848.125 284.546L864.008 285.717" stroke="white" stroke-width="3" stroke-linecap="round" stroke-linejoin="round"/>
<path d="M831.191 283.462L844.531 247.702L860.053 285.432" stroke="white" stroke-width="3" stroke-linecap="round" stroke-linejoin="round"/>
<path d="M841.792 255.068L854.212 284.989" stroke="white" stroke-width="3" stroke-linecap="round" stroke-linejoin="round"/>
<path d="M836.047 270.456L848.289 270.756" stroke="white" stroke-width="3" stroke-linecap="round" stroke-linejoin="round"/>
<path d="M380.118 107.425C387.779 107.425 394 101.204 394 93.5336C394 85.8635 387.779 79.6514 380.118 79.6514C372.448 79.6514 366.227 85.8635 366.227 93.5336C366.227 101.204 372.448 107.425 380.118 107.425Z" fill="#FCE5A8"/>
<path d="M542.889 291.773C547.24 291.773 550.773 288.24 550.773 283.884C550.773 279.528 547.24 276 542.889 276C538.533 276 535 279.528 535 283.884C535 288.24 538.533 291.773 542.889 291.773Z" fill="#F9AE5D"/>
<path d="M936.889 91.7734C941.24 91.7734 944.773 88.2403 944.773 83.8842C944.773 79.5281 941.24 76 936.889 76C932.533 76 929 79.5281 929 83.8842C929 88.2403 932.533 91.7734 936.889 91.7734Z" fill="#FCE5A8"/>
<path d="M250.58 326.192C242.53 326.192 236 319.662 236 311.612C236 303.561 242.53 297.031 250.58 297.031C258.63 297.031 265.161 303.561 265.161 311.612C265.161 319.662 258.63 326.192 250.58 326.192Z" fill="#FBA830"/>
</svg>
