<svg width="1440" height="400" viewBox="0 0 1440 400" fill="none" xmlns="http://www.w3.org/2000/svg">
<path d="M92 266.73C105 205.22 140.23 131.25 204.15 145.64C285.31 163.99 304.3 341.07 256.25 336.27C215.12 332.12 223.33 158 322.1 174.41" stroke="#FBA830" stroke-width="4" stroke-linecap="round" stroke-linejoin="round"/>
<path d="M277.625 75.7833C277.255 74.6733 276.145 73.9333 275.035 74.0533L226.655 78.3732L232.085 32.7133C232.215 31.6033 231.475 30.4932 230.365 30.1232C229.245 29.7532 228.015 30.2433 227.395 31.2333L203.825 72.9432L156.565 49.3732C155.455 48.8832 154.215 49.1233 153.475 50.1133C152.735 51.1033 152.865 52.4532 153.605 53.3232L187.045 89.1133L139.535 108.603C138.425 109.103 137.805 110.213 138.055 111.443C138.295 112.553 139.415 113.423 140.525 113.423L193.705 111.443L187.665 164.013C187.535 165.253 188.275 166.363 189.385 166.603C189.635 166.733 189.885 166.733 190.135 166.733C190.995 166.733 191.855 166.233 192.355 165.373L216.665 116.873L265.535 136.003C266.645 136.373 267.875 136.003 268.495 135.013C269.105 134.033 268.985 132.673 267.995 131.933L233.325 100.463L276.395 78.7432C277.505 78.1232 277.995 76.8933 277.625 75.7833Z" fill="white"/>
<path d="M630.98 322.95C640.36 322.95 647.95 315.35 647.95 305.97C647.95 296.6 640.36 289 630.98 289C621.6 289 614 296.6 614 305.97C614 315.35 621.6 322.95 630.98 322.95Z" fill="#FCE5A8"/>
<path d="M1232.39 322.78C1248.63 322.78 1261.79 309.63 1261.79 293.39C1261.79 277.16 1248.63 264 1232.39 264C1216.16 264 1203 277.16 1203 293.39C1203 309.63 1216.16 322.78 1232.39 322.78Z" fill="#F9AE5D"/>
<path d="M507.72 95.43C516.39 95.43 523.43 88.39 523.43 79.71C523.43 71.03 516.39 64 507.72 64C499.04 64 492 71.03 492 79.71C492 88.39 499.04 95.43 507.72 95.43Z" fill="#FCE5A8"/>
<path d="M424.5 343C415.39 343 408 335.61 408 326.5C408 317.39 415.39 310 424.5 310C433.61 310 441 317.39 441 326.5C441 335.61 433.61 343 424.5 343Z" fill="#FBA830"/>
<path d="M948.17 78.33C957.64 78.33 965.33 70.64 965.33 61.16C965.33 51.68 957.64 44 948.17 44C938.68 44 931 51.68 931 61.16C931 70.64 938.68 78.33 948.17 78.33Z" fill="#F9AE5D"/>
<path d="M1318.72 199.554L1286.71 151.98L1335.42 134.383C1336.28 134.052 1336.8 133.177 1336.7 132.289C1336.59 131.401 1335.81 130.595 1334.86 130.576L1285.37 125.606L1295.42 76.7496C1295.63 75.8681 1295.14 74.8463 1294.29 74.5448C1293.38 74.1155 1292.43 74.4128 1291.81 75.2545L1261.18 118.704L1206.69 81.8158C1205.82 81.2923 1204.84 81.3676 1204.16 82.0816C1203.48 82.7956 1203.39 83.9325 1203.98 84.6717L1241.32 133.08L1177.19 156.126C1176.24 156.424 1175.68 157.393 1175.85 158.408C1176.05 159.33 1176.86 160.042 1177.94 160L1244.51 157.244L1237.23 203.373C1237.12 204.288 1237.64 205.216 1238.49 205.517C1238.49 205.517 1238.49 205.517 1238.58 205.551C1239.43 205.852 1240.38 205.555 1240.87 204.774L1266.81 166.45L1315.72 202.31C1316.47 202.894 1317.58 202.758 1318.32 202.172C1319.13 201.397 1319.27 200.388 1318.72 199.554Z" fill="white"/>
<path d="M1252.06 57.1941L1248.22 37.2546" stroke="#121212" stroke-width="4" stroke-linecap="round" stroke-linejoin="round"/>
<path d="M1319.7 100.986L1328.56 94.2675" stroke="#121212" stroke-width="4" stroke-linecap="round" stroke-linejoin="round"/>
<path d="M1294.92 228.875L1301.17 242.031" stroke="#121212" stroke-width="4" stroke-linecap="round" stroke-linejoin="round"/>
<path d="M1188.72 115.649L1168.27 108.379" stroke="#121212" stroke-width="4" stroke-linecap="round" stroke-linejoin="round"/>
<path d="M1061.05 263.094L1134.91 273.09C1142.05 274.063 1148.73 269.794 1149.84 263.607C1149.94 263.039 1150 262.445 1150 261.85V134.375C1150 128.108 1144.16 123 1136.92 123C1136.24 123 1135.59 123.054 1134.91 123.135L1061.05 133.131C1054.69 133.997 1050 138.753 1050 144.371V251.881C1050 257.472 1054.69 262.228 1061.05 263.094Z" fill="#414BA2"/>
<path d="M1065.53 229.563L1083.73 230.726" stroke="white" stroke-width="4" stroke-linecap="round" stroke-linejoin="round"/>
<path d="M1105.12 232.183L1135.19 234.4" stroke="white" stroke-width="4" stroke-linecap="round" stroke-linejoin="round"/>
<path d="M1073.07 230.131L1098.32 162.447L1127.7 233.859" stroke="white" stroke-width="4" stroke-linecap="round" stroke-linejoin="round"/>
<path d="M1093.14 176.388L1116.65 233.021" stroke="white" stroke-width="4" stroke-linecap="round" stroke-linejoin="round"/>
<path d="M1082.27 205.514L1105.44 206.082" stroke="white" stroke-width="4" stroke-linecap="round" stroke-linejoin="round"/>
<path d="M230 229.705L253.559 96H400L376.441 229.705H230Z" fill="#FCE5A8"/>
<path d="M326.652 96L303.032 229.705" stroke="#121212" stroke-width="4" stroke-linecap="round" stroke-linejoin="round"/>
<path d="M294.753 200.417H249.421L256.741 159.033H302.077L294.753 200.417Z" fill="#414BA2"/>
<path d="M373.704 171.13H328.372L335.692 129.745H381.025L373.704 171.13Z" fill="#414BA2"/>
<path d="M246.874 214.425H292.077" stroke="#121212" stroke-width="4" stroke-linecap="round" stroke-linejoin="round"/>
<path d="M264.7 111.915H309.907" stroke="#121212" stroke-width="4" stroke-linecap="round" stroke-linejoin="round"/>
<path d="M339.194 111.915H384.401" stroke="#121212" stroke-width="4" stroke-linecap="round" stroke-linejoin="round"/>
<path d="M320.729 214.425H365.935" stroke="#121212" stroke-width="4" stroke-linecap="round" stroke-linejoin="round"/>
<path d="M289.214 129.745H307.36" stroke="#121212" stroke-width="4" stroke-linecap="round" stroke-linejoin="round"/>
<path d="M262.154 129.745H280.3" stroke="#121212" stroke-width="4" stroke-linecap="round" stroke-linejoin="round"/>
<path d="M287.304 141.203H305.449" stroke="#121212" stroke-width="4" stroke-linecap="round" stroke-linejoin="round"/>
<path d="M260.243 141.203H278.389" stroke="#121212" stroke-width="4" stroke-linecap="round" stroke-linejoin="round"/>
<path d="M352.247 188.32H370.393" stroke="#121212" stroke-width="4" stroke-linecap="round" stroke-linejoin="round"/>
<path d="M325.186 188.32H343.332" stroke="#121212" stroke-width="4" stroke-linecap="round" stroke-linejoin="round"/>
<path d="M350.336 199.782H368.482" stroke="#121212" stroke-width="4" stroke-linecap="round" stroke-linejoin="round"/>
<path d="M323.276 199.782H341.425" stroke="#121212" stroke-width="4" stroke-linecap="round" stroke-linejoin="round"/>
<path d="M355.437 136.571C355.196 137.161 355.021 137.725 354.851 138.224C353.999 141.14 353.077 145.687 352.749 149.642C352.332 154.681 352.96 158.329 353.746 161.637L349.989 162.418C349.27 159.468 348.736 154.672 349.124 149.984C349.47 145.806 350.433 141.166 351.045 138.038C351.162 137.405 351.286 136.677 351.302 136.1L355.437 136.571ZM349.438 139.606C355.497 140.108 360.337 140.22 365.314 139.445L365.042 143.115C360.607 143.55 353.87 143.473 349.055 143.075C347.364 142.934 344.89 142.569 343.397 142.381L343.605 138.706C344.74 138.96 347.493 139.445 349.438 139.606ZM362.827 145.436C362.524 145.989 361.924 147.416 361.645 148.067C359.352 153.657 355.711 157.69 352.496 159.671C350.296 161.03 347.406 162.204 344.631 161.974C342.303 161.781 340.474 160.217 340.743 156.964C341.116 152.467 345.523 148.112 350.746 146.683C352.915 146.092 355.569 145.83 357.961 146.028C363.925 146.522 368.04 150.331 367.628 155.306C367.253 159.834 364.212 163.981 356.299 164.546L354.442 160.988C360.652 160.829 363.428 157.944 363.69 154.787C363.914 152.076 361.776 149.587 357.471 149.23C354.569 148.99 352.204 149.629 350.583 150.201C347.27 151.436 344.752 154.31 344.575 156.446C344.488 157.499 344.858 158.075 345.91 158.162C347.409 158.287 349.633 157.411 351.729 155.755C354.234 153.811 356.638 151.152 358.278 146.857C358.557 146.206 358.893 144.853 358.983 144.154L362.827 145.436Z" fill="white"/>
<path d="M275.437 166.571C275.196 167.161 275.021 167.725 274.851 168.224C273.999 171.14 273.077 175.687 272.749 179.642C272.332 184.681 272.96 188.329 273.746 191.637L269.989 192.418C269.27 189.468 268.736 184.672 269.124 179.984C269.47 175.806 270.433 171.166 271.045 168.038C271.162 167.405 271.286 166.677 271.302 166.1L275.437 166.571ZM269.438 169.606C275.497 170.108 280.337 170.22 285.314 169.445L285.042 173.115C280.607 173.55 273.87 173.473 269.055 173.075C267.364 172.934 264.89 172.569 263.397 172.381L263.605 168.706C264.74 168.96 267.493 169.445 269.438 169.606ZM282.827 175.436C282.524 175.989 281.924 177.416 281.645 178.067C279.352 183.657 275.711 187.69 272.496 189.671C270.296 191.03 267.406 192.204 264.631 191.974C262.303 191.781 260.474 190.217 260.743 186.964C261.116 182.467 265.523 178.112 270.746 176.683C272.915 176.092 275.569 175.83 277.961 176.028C283.925 176.522 288.04 180.331 287.628 185.306C287.253 189.834 284.212 193.981 276.299 194.546L274.442 190.988C280.652 190.829 283.428 187.944 283.69 184.787C283.914 182.076 281.776 179.587 277.471 179.23C274.569 178.99 272.204 179.629 270.583 180.201C267.27 181.436 264.752 184.31 264.575 186.446C264.488 187.499 264.858 188.075 265.91 188.162C267.409 188.287 269.633 187.411 271.729 185.755C274.234 183.811 276.638 181.152 278.278 176.857C278.557 176.206 278.893 174.853 278.983 174.154L282.827 175.436Z" fill="white"/>
</svg>
