<svg width="768" height="400" viewBox="0 0 768 400" fill="none" xmlns="http://www.w3.org/2000/svg">
<path d="M548 135.814C552.822 112.997 565.891 85.558 589.601 90.8959C619.707 97.7027 626.751 163.39 608.928 161.609C593.671 160.07 596.716 95.4808 633.354 101.568" stroke="#FBA830" stroke-width="2" stroke-linecap="round" stroke-linejoin="round"/>
<path d="M616.857 64.983C616.719 64.5713 616.308 64.2968 615.896 64.3413L597.95 65.9438L599.964 49.0065C600.012 48.5947 599.738 48.183 599.326 48.0457C598.91 47.9085 598.454 48.0902 598.224 48.4575L589.481 63.9295L571.95 55.1864C571.538 55.0046 571.078 55.0937 570.804 55.4609C570.529 55.8281 570.578 56.3289 570.852 56.6516L583.256 69.9277L565.633 77.1574C565.221 77.3429 564.991 77.7546 565.084 78.2109C565.173 78.6226 565.588 78.9454 566 78.9454L585.727 78.2109L583.486 97.7114C583.438 98.1714 583.713 98.5832 584.124 98.6722C584.217 98.7204 584.31 98.7204 584.403 98.7204C584.722 98.7204 585.041 98.5349 585.226 98.2159L594.244 80.2251L612.372 87.3213C612.784 87.4585 613.24 87.3213 613.47 86.954C613.696 86.5905 613.652 86.086 613.284 85.8115L600.424 74.1379L616.4 66.081C616.812 65.851 616.994 65.3948 616.857 64.983Z" fill="white"/>
<path d="M599.19 122.08L607.929 72.4824H662.25L653.512 122.08H599.19Z" fill="#FCE5A8"/>
<path d="M635.043 72.4824L626.281 122.08" stroke="#121212" stroke-width="2" stroke-linecap="round" stroke-linejoin="round"/>
<path d="M623.21 111.216H606.394L609.109 95.8643H625.926L623.21 111.216Z" fill="#414BA2"/>
<path d="M652.496 100.352H635.681L638.396 85.0005H655.212L652.496 100.352Z" fill="#414BA2"/>
<path d="M605.449 116.412H622.217" stroke="#121212" stroke-width="2" stroke-linecap="round" stroke-linejoin="round"/>
<path d="M612.062 78.3867H628.831" stroke="#121212" stroke-width="2" stroke-linecap="round" stroke-linejoin="round"/>
<path d="M639.695 78.3867H656.464" stroke="#121212" stroke-width="2" stroke-linecap="round" stroke-linejoin="round"/>
<path d="M632.845 116.412H649.614" stroke="#121212" stroke-width="2" stroke-linecap="round" stroke-linejoin="round"/>
<path d="M621.155 85.0005H627.886" stroke="#121212" stroke-width="2" stroke-linecap="round" stroke-linejoin="round"/>
<path d="M611.117 85.0005H617.848" stroke="#121212" stroke-width="2" stroke-linecap="round" stroke-linejoin="round"/>
<path d="M620.446 89.2505H627.177" stroke="#121212" stroke-width="2" stroke-linecap="round" stroke-linejoin="round"/>
<path d="M610.409 89.2505H617.14" stroke="#121212" stroke-width="2" stroke-linecap="round" stroke-linejoin="round"/>
<path d="M644.537 106.729H651.268" stroke="#121212" stroke-width="2" stroke-linecap="round" stroke-linejoin="round"/>
<path d="M634.499 106.729H641.23" stroke="#121212" stroke-width="2" stroke-linecap="round" stroke-linejoin="round"/>
<path d="M643.828 110.979H650.559" stroke="#121212" stroke-width="2" stroke-linecap="round" stroke-linejoin="round"/>
<path d="M633.79 110.979H640.522" stroke="#121212" stroke-width="2" stroke-linecap="round" stroke-linejoin="round"/>
<path d="M645.72 87.5321C645.631 87.751 645.566 87.96 645.503 88.1454C645.187 89.2269 644.845 90.9138 644.723 92.3806C644.568 94.2497 644.802 95.6031 645.093 96.8302L643.699 97.1197C643.433 96.0256 643.235 94.2464 643.379 92.5075C643.507 90.9578 643.864 89.2365 644.091 88.0761C644.134 87.8415 644.181 87.5713 644.186 87.3574L645.72 87.5321ZM643.495 88.658C645.743 88.8442 647.538 88.8857 649.384 88.598L649.283 89.9594C647.638 90.1208 645.139 90.0925 643.353 89.9445C642.726 89.8925 641.808 89.7569 641.254 89.6872L641.331 88.3239C641.752 88.4183 642.773 88.5982 643.495 88.658ZM648.461 90.8203C648.349 91.0254 648.127 91.5549 648.023 91.7965C647.173 93.8699 645.822 95.366 644.629 96.101C643.813 96.6051 642.741 97.0403 641.712 96.9551C640.848 96.8835 640.17 96.3032 640.27 95.0966C640.408 93.4286 642.043 91.8131 643.98 91.2828C644.785 91.0636 645.769 90.9665 646.657 91.04C648.869 91.2233 650.395 92.6362 650.243 94.4816C650.103 96.1614 648.975 97.6998 646.04 97.9092L645.351 96.5896C647.655 96.5303 648.684 95.4602 648.782 94.2891C648.865 93.2836 648.072 92.3603 646.475 92.228C645.398 92.1388 644.521 92.3758 643.92 92.588C642.691 93.046 641.757 94.1121 641.691 94.9047C641.659 95.2951 641.796 95.5089 642.186 95.5412C642.742 95.5873 643.567 95.2626 644.345 94.6481C645.274 93.927 646.166 92.9408 646.774 91.3475C646.877 91.106 647.002 90.6042 647.036 90.3449L648.461 90.8203Z" fill="white"/>
<path d="M616.045 98.6605C615.955 98.8794 615.89 99.0884 615.827 99.2737C615.511 100.355 615.169 102.042 615.048 103.509C614.893 105.378 615.126 106.731 615.417 107.959L614.024 108.248C613.757 107.154 613.559 105.375 613.703 103.636C613.831 102.086 614.188 100.365 614.416 99.2044C614.459 98.9698 614.505 98.6997 614.511 98.4857L616.045 98.6605ZM613.82 99.7863C616.067 99.9725 617.862 100.014 619.708 99.7263L619.608 101.088C617.962 101.249 615.464 101.221 613.677 101.073C613.05 101.021 612.132 100.885 611.578 100.816L611.656 99.4522C612.077 99.5466 613.098 99.7265 613.82 99.7863ZM618.786 101.949C618.674 102.154 618.451 102.683 618.348 102.925C617.497 104.998 616.146 106.494 614.954 107.229C614.138 107.733 613.066 108.169 612.036 108.083C611.173 108.012 610.494 107.432 610.594 106.225C610.732 104.557 612.367 102.941 614.305 102.411C615.109 102.192 616.094 102.095 616.981 102.168C619.193 102.352 620.72 103.764 620.567 105.61C620.428 107.29 619.3 108.828 616.364 109.037L615.676 107.718C617.979 107.659 619.009 106.589 619.106 105.417C619.189 104.412 618.396 103.489 616.799 103.356C615.723 103.267 614.846 103.504 614.244 103.716C613.015 104.174 612.081 105.24 612.016 106.033C611.983 106.423 612.12 106.637 612.511 106.67C613.067 106.716 613.892 106.391 614.669 105.776C615.598 105.055 616.49 104.069 617.099 102.476C617.202 102.234 617.327 101.732 617.36 101.473L618.786 101.949Z" fill="white"/>
<path d="M577.425 246.063C584.786 246.063 590.743 240.099 590.743 232.738C590.743 225.384 584.786 219.42 577.425 219.42C570.064 219.42 564.1 225.384 564.1 232.738C564.1 240.099 570.064 246.063 577.425 246.063Z" fill="#FCE5A8"/>
<path d="M684.514 332.848C690.615 332.848 695.558 327.908 695.558 321.808C695.558 315.711 690.615 310.768 684.514 310.768C678.418 310.768 673.474 315.711 673.474 321.808C673.474 327.908 678.418 332.848 684.514 332.848Z" fill="#F9AE5D"/>
<path d="M693.953 133.001C698.768 133.001 702.679 129.091 702.679 124.27C702.679 119.45 698.768 115.544 693.953 115.544C689.127 115.544 685.222 119.45 685.222 124.27C685.222 129.091 689.127 133.001 693.953 133.001Z" fill="#F9AE5D"/>
<path d="M716.944 279.449L704.92 261.577L723.218 254.967C723.541 254.843 723.738 254.514 723.697 254.181C723.656 253.847 723.365 253.544 723.009 253.537L704.416 251.67L708.191 233.317C708.269 232.986 708.086 232.602 707.768 232.489C707.427 232.328 707.068 232.44 706.836 232.756L695.331 249.077L674.862 235.22C674.533 235.024 674.164 235.052 673.909 235.32C673.654 235.588 673.622 236.016 673.842 236.293L687.869 254.478L663.779 263.135C663.421 263.247 663.211 263.611 663.275 263.992C663.351 264.338 663.655 264.606 664.059 264.59L689.066 263.555L686.333 280.883C686.291 281.227 686.486 281.575 686.804 281.688C686.804 281.688 686.804 281.688 686.84 281.701C687.158 281.814 687.517 281.703 687.701 281.409L697.445 267.013L715.819 280.484C716.1 280.703 716.517 280.652 716.794 280.432C717.097 280.141 717.152 279.762 716.944 279.449Z" fill="white"/>
<path d="M691.904 225.972L690.461 218.481" stroke="#121212" stroke-width="2" stroke-linecap="round" stroke-linejoin="round"/>
<path d="M717.313 242.422L720.642 239.898" stroke="#121212" stroke-width="2" stroke-linecap="round" stroke-linejoin="round"/>
<path d="M708.004 290.464L710.354 295.406" stroke="#121212" stroke-width="2" stroke-linecap="round" stroke-linejoin="round"/>
<path d="M668.11 247.93L660.429 245.199" stroke="#121212" stroke-width="2" stroke-linecap="round" stroke-linejoin="round"/>
<path d="M620.153 303.317L647.896 307.072C650.578 307.438 653.086 305.834 653.506 303.51C653.541 303.297 653.565 303.073 653.565 302.85V254.964C653.565 252.61 651.372 250.691 648.653 250.691C648.396 250.691 648.152 250.712 647.896 250.742L620.153 254.497C617.762 254.822 616 256.609 616 258.72V299.105C616 301.205 617.762 302.992 620.153 303.317Z" fill="#414BA2"/>
<path d="M621.833 290.721L628.669 291.158" stroke="white" stroke-width="2" stroke-linecap="round" stroke-linejoin="round"/>
<path d="M636.708 291.706L648.001 292.539" stroke="white" stroke-width="2" stroke-linecap="round" stroke-linejoin="round"/>
<path d="M624.667 290.934L634.152 265.509L645.188 292.335" stroke="white" stroke-width="2" stroke-linecap="round" stroke-linejoin="round"/>
<path d="M632.205 270.747L641.035 292.021" stroke="white" stroke-width="2" stroke-linecap="round" stroke-linejoin="round"/>
<path d="M628.121 281.688L636.824 281.901" stroke="white" stroke-width="2" stroke-linecap="round" stroke-linejoin="round"/>
<path d="M467.877 84.7466C473.324 84.7466 477.747 80.3236 477.747 74.8702C477.747 69.4168 473.324 65 467.877 65C462.423 65 458 69.4168 458 74.8702C458 80.3236 462.423 84.7466 467.877 84.7466Z" fill="#FCE5A8"/>
<path d="M498.609 209.215C501.703 209.215 504.215 206.703 504.215 203.606C504.215 200.508 501.703 198 498.609 198C495.512 198 493 200.508 493 203.606C493 206.703 495.512 209.215 498.609 209.215Z" fill="#F9AE5D"/>
<path d="M710.609 53.2147C713.703 53.2147 716.215 50.7028 716.215 47.6056C716.215 44.5084 713.703 42 710.609 42C707.512 42 705 44.5084 705 47.6056C705 50.7028 707.512 53.2147 710.609 53.2147Z" fill="#FCE5A8"/>
<path d="M447.366 342.733C441.643 342.733 437 338.09 437 332.367C437 326.643 441.643 322 447.366 322C453.09 322 457.733 326.643 457.733 332.367C457.733 338.09 453.09 342.733 447.366 342.733Z" fill="#FBA830"/>
</svg>
