<svg width="425" height="400" viewBox="0 0 425 400" fill="none" xmlns="http://www.w3.org/2000/svg">
<path d="M240 113.814C244.822 90.9968 257.891 63.558 281.601 68.8959C311.707 75.7027 318.751 141.39 300.928 139.609C285.671 138.07 288.716 73.4808 325.354 79.568" stroke="#FBA830" stroke-width="2" stroke-linecap="round" stroke-linejoin="round"/>
<path d="M308.857 42.983C308.719 42.5713 308.308 42.2968 307.896 42.3413L289.95 43.9438L291.964 27.0065C292.012 26.5947 291.738 26.183 291.326 26.0457C290.91 25.9085 290.454 26.0902 290.224 26.4575L281.481 41.9295L263.95 33.1864C263.538 33.0046 263.078 33.0937 262.804 33.4609C262.529 33.8281 262.578 34.3289 262.852 34.6516L275.256 47.9277L257.633 55.1574C257.221 55.3429 256.991 55.7546 257.084 56.2109C257.173 56.6226 257.588 56.9454 258 56.9454L277.727 56.2109L275.486 75.7114C275.438 76.1714 275.713 76.5832 276.124 76.6722C276.217 76.7204 276.31 76.7204 276.403 76.7204C276.722 76.7204 277.041 76.5349 277.226 76.2159L286.244 58.2251L304.372 65.3213C304.784 65.4585 305.24 65.3213 305.47 64.954C305.696 64.5905 305.652 64.086 305.284 63.8115L292.424 52.1379L308.4 44.081C308.812 43.851 308.994 43.3948 308.857 42.983Z" fill="white"/>
<path d="M291.19 100.08L299.929 50.4824H354.25L345.512 100.08H291.19Z" fill="#FCE5A8"/>
<path d="M327.043 50.4824L318.281 100.08" stroke="#121212" stroke-width="2" stroke-linecap="round" stroke-linejoin="round"/>
<path d="M315.21 89.2157H298.394L301.109 73.8643H317.926L315.21 89.2157Z" fill="#414BA2"/>
<path d="M344.496 78.3519H327.681L330.396 63.0005H347.212L344.496 78.3519Z" fill="#414BA2"/>
<path d="M297.449 94.4116H314.217" stroke="#121212" stroke-width="2" stroke-linecap="round" stroke-linejoin="round"/>
<path d="M304.062 56.3867H320.831" stroke="#121212" stroke-width="2" stroke-linecap="round" stroke-linejoin="round"/>
<path d="M331.695 56.3867H348.464" stroke="#121212" stroke-width="2" stroke-linecap="round" stroke-linejoin="round"/>
<path d="M324.845 94.4116H341.614" stroke="#121212" stroke-width="2" stroke-linecap="round" stroke-linejoin="round"/>
<path d="M313.155 63.0005H319.886" stroke="#121212" stroke-width="2" stroke-linecap="round" stroke-linejoin="round"/>
<path d="M303.117 63.0005H309.848" stroke="#121212" stroke-width="2" stroke-linecap="round" stroke-linejoin="round"/>
<path d="M312.446 67.2505H319.177" stroke="#121212" stroke-width="2" stroke-linecap="round" stroke-linejoin="round"/>
<path d="M302.409 67.2505H309.14" stroke="#121212" stroke-width="2" stroke-linecap="round" stroke-linejoin="round"/>
<path d="M336.537 84.7285H343.268" stroke="#121212" stroke-width="2" stroke-linecap="round" stroke-linejoin="round"/>
<path d="M326.499 84.7285H333.23" stroke="#121212" stroke-width="2" stroke-linecap="round" stroke-linejoin="round"/>
<path d="M335.828 88.9795H342.559" stroke="#121212" stroke-width="2" stroke-linecap="round" stroke-linejoin="round"/>
<path d="M325.79 88.9795H332.522" stroke="#121212" stroke-width="2" stroke-linecap="round" stroke-linejoin="round"/>
<path d="M337.72 65.5321C337.631 65.751 337.566 65.96 337.503 66.1454C337.187 67.2269 336.845 68.9138 336.723 70.3806C336.568 72.2497 336.802 73.6031 337.093 74.8302L335.699 75.1197C335.433 74.0256 335.235 72.2464 335.379 70.5075C335.507 68.9578 335.864 67.2365 336.091 66.0761C336.134 65.8415 336.181 65.5713 336.186 65.3574L337.72 65.5321ZM335.495 66.658C337.743 66.8442 339.538 66.8857 341.384 66.598L341.283 67.9594C339.638 68.1208 337.139 68.0925 335.353 67.9445C334.726 67.8925 333.808 67.7569 333.254 67.6872L333.331 66.3239C333.752 66.4183 334.773 66.5982 335.495 66.658ZM340.461 68.8203C340.349 69.0254 340.127 69.5549 340.023 69.7965C339.173 71.8699 337.822 73.366 336.629 74.101C335.813 74.6051 334.741 75.0403 333.712 74.9551C332.848 74.8835 332.17 74.3032 332.27 73.0966C332.408 71.4286 334.043 69.8131 335.98 69.2828C336.785 69.0636 337.769 68.9665 338.657 69.04C340.869 69.2233 342.395 70.6362 342.243 72.4816C342.103 74.1614 340.975 75.6998 338.04 75.9092L337.351 74.5896C339.655 74.5303 340.684 73.4602 340.782 72.2891C340.865 71.2836 340.072 70.3603 338.475 70.228C337.398 70.1388 336.521 70.3758 335.92 70.588C334.691 71.046 333.757 72.1121 333.691 72.9047C333.659 73.2951 333.796 73.5089 334.186 73.5412C334.742 73.5873 335.567 73.2626 336.345 72.6481C337.274 71.927 338.166 70.9408 338.774 69.3475C338.877 69.106 339.002 68.6042 339.036 68.3449L340.461 68.8203Z" fill="white"/>
<path d="M308.045 76.6605C307.955 76.8794 307.89 77.0884 307.827 77.2737C307.511 78.3553 307.169 80.0421 307.048 81.509C306.893 83.3781 307.126 84.7314 307.417 85.9585L306.024 86.248C305.757 85.154 305.559 83.3748 305.703 81.6358C305.831 80.0861 306.188 78.3648 306.416 77.2044C306.459 76.9698 306.505 76.6997 306.511 76.4857L308.045 76.6605ZM305.82 77.7863C308.067 77.9725 309.862 78.014 311.708 77.7263L311.608 79.0877C309.962 79.2492 307.464 79.2208 305.677 79.0728C305.05 79.0209 304.132 78.8853 303.578 78.8155L303.656 77.4522C304.077 77.5466 305.098 77.7265 305.82 77.7863ZM310.786 79.9487C310.674 80.1537 310.451 80.6832 310.348 80.9248C309.497 82.9983 308.146 84.4943 306.954 85.2293C306.138 85.7334 305.066 86.1687 304.036 86.0834C303.173 86.0118 302.494 85.4316 302.594 84.2249C302.732 82.5569 304.367 80.9415 306.305 80.4112C307.109 80.1919 308.094 80.0949 308.981 80.1684C311.193 80.3516 312.72 81.7645 312.567 83.6099C312.428 85.2897 311.3 86.8281 308.364 87.0375L307.676 85.7179C309.979 85.6586 311.009 84.5886 311.106 83.4174C311.189 82.4119 310.396 81.4886 308.799 81.3563C307.723 81.2671 306.846 81.5041 306.244 81.7164C305.015 82.1743 304.081 83.2404 304.016 84.033C303.983 84.4234 304.12 84.6372 304.511 84.6696C305.067 84.7156 305.892 84.3909 306.669 83.7764C307.598 83.0554 308.49 82.0692 309.099 80.4759C309.202 80.2343 309.327 79.7325 309.36 79.4732L310.786 79.9487Z" fill="white"/>
<path d="M327.326 203.643C334.687 203.643 340.643 197.679 340.643 190.318C340.643 182.964 334.687 177 327.326 177C319.964 177 314 182.964 314 190.318C314 197.679 319.964 203.643 327.326 203.643Z" fill="#FCE5A8"/>
<path d="M356.514 370.848C362.615 370.848 367.558 365.908 367.558 359.808C367.558 353.711 362.615 348.768 356.514 348.768C350.418 348.768 345.474 353.711 345.474 359.808C345.474 365.908 350.418 370.848 356.514 370.848Z" fill="#F9AE5D"/>
<path d="M385.953 101.001C390.768 101.001 394.679 97.0911 394.679 92.2704C394.679 87.4498 390.768 83.5444 385.953 83.5444C381.127 83.5444 377.222 87.4498 377.222 92.2704C377.222 97.0911 381.127 101.001 385.953 101.001Z" fill="#F9AE5D"/>
<path d="M388.944 317.449L376.92 299.577L395.218 292.967C395.541 292.843 395.738 292.514 395.697 292.181C395.656 291.847 395.365 291.544 395.009 291.537L376.416 289.67L380.191 271.317C380.269 270.986 380.086 270.602 379.768 270.489C379.427 270.328 379.068 270.44 378.836 270.756L367.331 287.077L346.862 273.22C346.533 273.024 346.164 273.052 345.909 273.32C345.654 273.588 345.622 274.016 345.842 274.293L359.869 292.478L335.779 301.135C335.421 301.247 335.211 301.611 335.275 301.992C335.351 302.338 335.655 302.606 336.059 302.59L361.066 301.555L358.333 318.883C358.291 319.227 358.486 319.575 358.804 319.688C358.804 319.688 358.804 319.688 358.84 319.701C359.158 319.814 359.517 319.703 359.701 319.409L369.445 305.013L387.819 318.484C388.1 318.703 388.517 318.652 388.794 318.432C389.097 318.141 389.152 317.762 388.944 317.449Z" fill="white"/>
<path d="M363.904 263.972L362.461 256.481" stroke="#121212" stroke-width="2" stroke-linecap="round" stroke-linejoin="round"/>
<path d="M389.313 280.422L392.642 277.898" stroke="#121212" stroke-width="2" stroke-linecap="round" stroke-linejoin="round"/>
<path d="M380.004 328.464L382.354 333.406" stroke="#121212" stroke-width="2" stroke-linecap="round" stroke-linejoin="round"/>
<path d="M340.11 285.93L332.429 283.199" stroke="#121212" stroke-width="2" stroke-linecap="round" stroke-linejoin="round"/>
<path d="M292.153 381.317L319.896 385.072C322.578 385.438 325.086 383.834 325.506 381.51C325.541 381.297 325.565 381.073 325.565 380.85V332.964C325.565 330.61 323.372 328.691 320.653 328.691C320.396 328.691 320.152 328.712 319.896 328.742L292.153 332.497C289.762 332.822 288 334.609 288 336.72V377.105C288 379.205 289.762 380.992 292.153 381.317Z" fill="#414BA2"/>
<path d="M293.833 368.721L300.669 369.158" stroke="white" stroke-width="2" stroke-linecap="round" stroke-linejoin="round"/>
<path d="M308.708 369.706L320.001 370.539" stroke="white" stroke-width="2" stroke-linecap="round" stroke-linejoin="round"/>
<path d="M296.667 368.934L306.152 343.509L317.188 370.335" stroke="white" stroke-width="2" stroke-linecap="round" stroke-linejoin="round"/>
<path d="M304.205 348.747L313.035 370.021" stroke="white" stroke-width="2" stroke-linecap="round" stroke-linejoin="round"/>
<path d="M300.121 359.688L308.824 359.901" stroke="white" stroke-width="2" stroke-linecap="round" stroke-linejoin="round"/>
<path d="M159.877 52.7466C165.324 52.7466 169.747 48.3236 169.747 42.8702C169.747 37.4168 165.324 33 159.877 33C154.423 33 150 37.4168 150 42.8702C150 48.3236 154.423 52.7466 159.877 52.7466Z" fill="#FCE5A8"/>
<path d="M227.609 348.215C230.703 348.215 233.215 345.703 233.215 342.606C233.215 339.508 230.703 337 227.609 337C224.512 337 222 339.508 222 342.606C222 345.703 224.512 348.215 227.609 348.215Z" fill="#F9AE5D"/>
<path d="M402.609 21.2147C405.703 21.2147 408.215 18.7028 408.215 15.6056C408.215 12.5084 405.703 10 402.609 10C399.512 10 397 12.5084 397 15.6056C397 18.7028 399.512 21.2147 402.609 21.2147Z" fill="#FCE5A8"/>
<path d="M206.366 391.733C200.643 391.733 196 387.09 196 381.367C196 375.643 200.643 371 206.366 371C212.09 371 216.733 375.643 216.733 381.367C216.733 387.09 212.09 391.733 206.366 391.733Z" fill="#FBA830"/>
</svg>
